<?xml version="1.0" encoding="utf-8"?><!DOCTYPE svg PUBLIC "-//W3C//DTD SVG 1.1//EN" "http://www.w3.org/Graphics/SVG/1.1/DTD/svg11.dtd"><svg version="1.1" xmlns="http://www.w3.org/2000/svg" xmlns:xlink="http://www.w3.org/1999/xlink" width="32" height="32" viewBox="0 0 32 32" data-tags="site map,tree,map"><g fill="#444" transform="scale(0.03125 0.03125)"><path d="M767.104 862.88h-95.68c-17.6 0-31.904-14.24-31.904-31.872v-63.808c0-17.568 14.304-31.872 31.904-31.872h63.776v-159.488h-223.264v159.488h31.872c17.632 0 31.904 14.304 31.904 31.872v63.808c0 17.632-14.272 31.872-31.904 31.872h-95.68c-17.6 0-31.872-14.24-31.872-31.872v-63.808c0-17.568 14.272-31.872 31.872-31.872h31.936v-159.488h-223.296v159.488h63.776c17.632 0 31.904 14.304 31.904 31.872v63.808c0 17.632-14.272 31.872-31.904 31.872h-95.648c-17.632 0-31.904-14.24-31.904-31.872v-63.808c0-17.568 14.272-31.872 31.904-31.872v-159.488-31.872h255.168v-127.584h-95.68c-17.632 0-31.904-14.272-31.904-31.904l0-159.488c0-17.6 14.272-31.904 31.904-31.904h223.264c17.632 0 31.872 14.272 31.872 31.904v159.456c0 17.6-14.24 31.904-31.872 31.904h-95.68v127.584h255.168v31.872 159.488c17.6 0 31.904 14.304 31.904 31.872v63.808c-0.032 17.664-14.368 31.904-31.936 31.904zM224.896 767.2v63.808h95.648v-63.808h-95.648zM607.616 384.48v-159.488h-223.264v159.456h223.264zM448.128 767.2v63.808h95.68v-63.808h-95.68zM767.104 767.2h-95.68v63.808h95.68v-63.808z" /></g></svg>