<?xml version="1.0" encoding="utf-8"?><!DOCTYPE svg PUBLIC "-//W3C//DTD SVG 1.1//EN" "http://www.w3.org/Graphics/SVG/1.1/DTD/svg11.dtd"><svg version="1.1" xmlns="http://www.w3.org/2000/svg" xmlns:xlink="http://www.w3.org/1999/xlink" width="32" height="32" viewBox="0 0 32 32" data-tags="compass,location,map"><g fill="#444" transform="scale(0.03125 0.03125)"><path d="M580 444.128c25.504 25.568 32.256 61.76 23.008 94.176l164.992-282.304-278.496 164.448c31.488-7.776 65.856-0.96 90.496 23.68zM444.256 579.872c-24.736-24.672-31.488-59.2-23.744-90.752l-164.512 278.88 282.624-165.12c-32.512 9.376-68.736 2.624-94.368-23.008zM512 128c211.744 0 384 172.256 384 384s-172.256 384-384 384-384-172.256-384-384 172.256-384 384-384M512 0c-282.752 0-512 229.248-512 512s229.248 512 512 512 512-229.248 512-512-229.248-512-512-512v0z" /></g></svg>