<?xml version="1.0" encoding="utf-8"?><!DOCTYPE svg PUBLIC "-//W3C//DTD SVG 1.1//EN" "http://www.w3.org/Graphics/SVG/1.1/DTD/svg11.dtd"><svg version="1.1" xmlns="http://www.w3.org/2000/svg" xmlns:xlink="http://www.w3.org/1999/xlink" width="24" height="24" viewBox="0 0 24 24" data-tags="location_off"><g fill="#444" transform="scale(0.0234375 0.0234375)"><path d="M500 490q218 216 354 352l-54 54-144-142q-32 48-68 94t-56 68l-20 22q-12-14-32-37t-72-92-91-134-71-147-32-144q0-22 8-66l-136-136 54-54 356 356zM512 278q-46 0-78 36l-138-136q36-38 100-65t116-27q124 0 211 87t87 211q0 96-72 234l-154-156q34-30 34-78 0-44-31-75t-75-31z" /></g></svg>