<?xml version="1.0" encoding="utf-8"?><!DOCTYPE svg PUBLIC "-//W3C//DTD SVG 1.1//EN" "http://www.w3.org/Graphics/SVG/1.1/DTD/svg11.dtd"><svg version="1.1" xmlns="http://www.w3.org/2000/svg" xmlns:xlink="http://www.w3.org/1999/xlink" width="24" height="24" viewBox="0 0 24 24" data-tags="social-pinterest"><g fill="#444" transform="scale(0.0234375 0.0234375)"><path d="M532.736 203.563c-180.48 0-271.488 129.408-271.488 237.312 0 65.408 24.789 123.477 77.781 145.109 8.747 3.584 16.512 0.171 19.029-9.429 1.749-6.699 5.888-23.595 7.765-30.592 2.603-9.429 1.579-12.8-5.419-21.12-15.317-18.005-25.088-41.472-25.088-74.539 0-96 71.808-181.931 187.051-181.931 102.059 0 158.123 62.421 158.123 145.579 0 109.568-48.512 201.984-120.491 201.984-39.765 0-69.504-32.853-59.947-73.173 11.435-48.213 33.536-100.139 33.536-134.827 0-31.104-16.725-57.003-51.2-57.003-40.619 0-73.301 41.984-73.301 98.304 0 35.883 12.203 60.117 12.203 60.117s-41.643 176.171-48.896 207.019c-14.507 61.44-2.176 136.789-1.067 144.427 0.555 4.437 6.357 5.589 8.96 2.176 3.755-4.907 52.181-64.725 68.565-124.373 4.736-16.896 26.752-104.32 26.752-104.32 13.269 25.131 51.755 47.275 92.8 47.275 122.155 0 204.971-111.275 204.971-260.395-0.128-112.64-95.573-217.6-240.64-217.6z" /></g></svg>