<?xml version="1.0" encoding="utf-8"?><!DOCTYPE svg PUBLIC "-//W3C//DTD SVG 1.1//EN" "http://www.w3.org/Graphics/SVG/1.1/DTD/svg11.dtd"><svg version="1.1" xmlns="http://www.w3.org/2000/svg" xmlns:xlink="http://www.w3.org/1999/xlink" width="24" height="24" viewBox="0 0 24 24" data-tags="add_location_alt"><g fill="#444" transform="scale(0.0234375 0.0234375)"><path d="M854 42v128h128v86h-128v128h-86v-128h-128v-86h128v-128h86zM512 554q36 0 61-25t25-59q0-36-25-61t-61-25-61 25-25 61q0 34 25 59t61 25zM598 138v160h128v128h124q4 28 4 52 0 212-342 504-342-292-342-504 0-80 28-144t76-110 109-71 129-25q44 0 86 10z" /></g></svg>