<?xml version="1.0" encoding="utf-8"?><!DOCTYPE svg PUBLIC "-//W3C//DTD SVG 1.1//EN" "http://www.w3.org/Graphics/SVG/1.1/DTD/svg11.dtd"><svg version="1.1" xmlns="http://www.w3.org/2000/svg" xmlns:xlink="http://www.w3.org/1999/xlink" width="24" height="24" viewBox="0 0 24 24" data-tags="location_pin"><g fill="#444" transform="scale(0.0234375 0.0234375)"><path d="M512 86v0q-62 0-116 23t-95 64-64 95-23 116q0 56 15 108t45 98q30 50 67 94t67 94q16 24 27 47t23 49q6 12 12 27t16 26 26 11v0q16 0 26-11t16-26 12-27q12-26 23-49t27-47q30-48 67-93t67-95q30-46 45-98t15-108q0-62-23-116t-64-95-95-64-116-23zM512 502q-44 0-75-32t-31-76 31-75 75-31 75 31 31 75-31 76-75 32z" /></g></svg>