<?xml version="1.0" encoding="utf-8"?><!DOCTYPE svg PUBLIC "-//W3C//DTD SVG 1.1//EN" "http://www.w3.org/Graphics/SVG/1.1/DTD/svg11.dtd"><svg version="1.1" xmlns="http://www.w3.org/2000/svg" xmlns:xlink="http://www.w3.org/1999/xlink" width="24" height="24" viewBox="0 0 24 24" data-tags="maps_ugc"><g fill="#444" transform="scale(0.0234375 0.0234375)"><path d="M512 86q-88 0-165 33t-136 92-92 136-33 165q0 50 11 96t29 88l-84 286 286-84q42 18 88 29t96 11q88 0 165-33t136-92 92-136 33-165-33-165-92-136-136-92-165-33zM682 554h-128v128h-84v-128h-128v-84h128v-128h84v128h128v84z" /></g></svg>