<?xml version="1.0" encoding="utf-8"?><!DOCTYPE svg PUBLIC "-//W3C//DTD SVG 1.1//EN" "http://www.w3.org/Graphics/SVG/1.1/DTD/svg11.dtd"><svg version="1.1" xmlns="http://www.w3.org/2000/svg" xmlns:xlink="http://www.w3.org/1999/xlink" width="32" height="32" viewBox="0 0 32 32" data-tags="bowling pin,pin,stports"><g fill="#444" transform="scale(0.03125 0.03125)"><path d="M605.056 202.816h-183.936c0 0-122.176 229.312-122.176 426.080 0 104.544 44.416 277.92 44.896 277.92 31.872 126.912 54.56 116.992 175.2 116.992 111.2 0 142.816 10.016 167.904-116.864-0.576 0.544 38.112-171.68 38.112-278.016 0-214.336-120-426.112-120-426.112zM597.504 58.688c0 0 29.504-97.6 29.504-157.568s-30.432-149.504-111.872-149.504c-81.472 0-119.072 88.64-119.072 148.64 0 59.968 32.224 158.432 32.224 158.432l169.216 0zM590.304 152.672v-50.144h-156.64v50.112h156.64z" /></g></svg>