<?xml version="1.0" encoding="utf-8"?><!DOCTYPE svg PUBLIC "-//W3C//DTD SVG 1.1//EN" "http://www.w3.org/Graphics/SVG/1.1/DTD/svg11.dtd"><svg version="1.1" xmlns="http://www.w3.org/2000/svg" xmlns:xlink="http://www.w3.org/1999/xlink" width="24" height="24" viewBox="0 0 24 24" data-tags="push_pin"><g fill="#444" transform="scale(0.0234375 0.0234375)"><path d="M682 384v-214h44q16 0 29-12t13-30v0q0-18-13-30t-29-12h-428q-16 0-29 12t-13 30v0q0 18 13 30t29 12h44v214q0 36-18 65t-47 46-63 17v0 86h254v298l42 42 44-42v-298h256v-86q-34 0-63-17t-47-46-18-65z" /></g></svg>