<?xml version="1.0" encoding="utf-8"?><!DOCTYPE svg PUBLIC "-//W3C//DTD SVG 1.1//EN" "http://www.w3.org/Graphics/SVG/1.1/DTD/svg11.dtd"><svg version="1.1" xmlns="http://www.w3.org/2000/svg" xmlns:xlink="http://www.w3.org/1999/xlink" width="24" height="24" viewBox="0 0 24 24" data-tags="location-outline"><g fill="#444" transform="scale(0.0234375 0.0234375)"><path d="M512 213.333c68.651 0 133.12 26.197 181.504 73.813 48.043 47.232 74.496 110.037 74.496 176.64s-26.453 129.28-74.453 176.597l-181.547 178.517-181.504-178.603c-48-47.232-74.453-109.909-74.453-176.597s26.453-129.365 74.453-176.683c48.427-47.488 112.939-73.685 181.504-73.685M512 128c-87.339 0-174.763 32.768-241.365 98.347-133.291 131.157-133.291 343.765 0 474.923l241.365 237.355 241.365-237.44c133.291-131.072 133.291-343.723 0-474.837-66.603-65.579-153.984-98.347-241.365-98.347z" /><path d="M512 362.624c28.501 0 55.296 11.093 75.435 31.189 41.643 41.643 41.643 109.312 0 150.912-20.181 20.139-46.933 31.189-75.435 31.189s-55.253-11.093-75.435-31.189c-41.643-41.643-41.643-109.312 0-150.912 20.181-20.096 46.976-31.189 75.435-31.189M512 319.957c-38.229 0-76.459 14.592-105.6 43.691-58.325 58.325-58.325 152.917 0 211.243 29.184 29.184 67.328 43.691 105.6 43.691s76.459-14.592 105.6-43.691c58.283-58.325 58.283-152.917 0-211.243-29.141-29.141-67.371-43.691-105.6-43.691z" /></g></svg>