<?xml version="1.0" encoding="utf-8"?><!DOCTYPE svg PUBLIC "-//W3C//DTD SVG 1.1//EN" "http://www.w3.org/Graphics/SVG/1.1/DTD/svg11.dtd"><svg version="1.1" xmlns="http://www.w3.org/2000/svg" xmlns:xlink="http://www.w3.org/1999/xlink" width="24" height="24" viewBox="0 0 24 24" data-tags="wrong_location"><g fill="#444" transform="scale(0.0234375 0.0234375)"><path d="M598 426v-286q-44-12-86-12-68 0-129 25t-109 71-76 110-28 144q0 212 342 504 342-292 342-504 0-14-1-26t-3-26h-252zM512 554q-36 0-61-25t-25-59q0-36 25-61t61-25 61 25 25 61q0 34-25 59t-61 25zM962 122l-60-60-92 92-90-92-60 60 90 92-90 90 60 60 90-90 92 90 60-60-92-90z" /></g></svg>