<?xml version="1.0" encoding="utf-8"?><!DOCTYPE svg PUBLIC "-//W3C//DTD SVG 1.1//EN" "http://www.w3.org/Graphics/SVG/1.1/DTD/svg11.dtd"><svg version="1.1" xmlns="http://www.w3.org/2000/svg" xmlns:xlink="http://www.w3.org/1999/xlink" width="24" height="24" viewBox="0 0 24 24" data-tags="map"><g fill="#444" transform="scale(0.0234375 0.0234375)"><path d="M298.667 158.848v584.405l-213.333 121.899v-584.405zM725.333 865.152v-584.405l213.333-121.899v584.363zM662.827 976.427c3.499 1.835 7.253 3.2 11.221 4.011 1.408 0.299 2.859 0.512 4.309 0.64s2.901 0.213 4.352 0.213c-0.043 0.043-0.043 0.043-0.043 0.043s0 0 0.043 0c7.381 0 14.677-1.963 21.163-5.632l0.64-0.384 298.027-170.283c13.653-7.808 21.376-22.101 21.461-37.035v-682.667c0-23.552-19.115-42.667-42.667-42.667-7.808 0-15.104 2.091-21.163 5.632l-278.827 159.317-320.128-160.085c-3.541-1.792-7.296-3.2-11.264-4.011-1.451-0.299-2.859-0.512-4.309-0.64s-2.901-0.213-4.352-0.213c0.043 0 0.043 0 0.043 0s0 0-0.043 0c-7.381 0-14.677 1.963-21.12 5.632l-0.64 0.341-298.027 170.325c-13.696 7.808-21.419 22.101-21.504 37.035v682.667c0 23.552 19.115 42.667 42.667 42.667 7.808 0 15.104-2.091 21.163-5.632l278.827-159.317zM640 282.368v587.264l-256-128v-587.264z" /></g></svg>