<?xml version="1.0" encoding="utf-8"?><!DOCTYPE svg PUBLIC "-//W3C//DTD SVG 1.1//EN" "http://www.w3.org/Graphics/SVG/1.1/DTD/svg11.dtd"><svg version="1.1" xmlns="http://www.w3.org/2000/svg" xmlns:xlink="http://www.w3.org/1999/xlink" width="20" height="32" viewBox="0 0 20 32" data-tags="map-pin-stroke,pin,location"><g fill="#444" transform="scale(0.03125 0.03125)"><path d="M320 128c51.264 0 99.488 20 135.744 56.32 36.256 36.192 56.256 84.416 56.256 135.68s-20 99.488-55.36 134.816c-5.376 5.312-71.616 71.2-136.64 174.112-64.736-102.752-130.752-168.384-135.744-173.248-36.256-36.192-56.256-84.416-56.256-135.68s20-99.488 56.256-135.744 84.48-56.256 135.744-56.256M320 0c-81.888 0-163.744 31.264-226.24 93.76-124.992 124.928-124.992 327.552 0 452.512 0-0.032 226.24 221.728 226.24 477.728 0-256 226.24-477.76 226.24-477.76 124.992-124.928 124.992-327.552 0-452.512-62.496-62.464-144.352-93.728-226.24-93.728v0zM256 320c0-35.346 28.654-64 64-64s64 28.654 64 64c0 35.346-28.654 64-64 64-35.346 0-64-28.654-64-64z" /></g></svg>