<?xml version="1.0" encoding="utf-8"?><!DOCTYPE svg PUBLIC "-//W3C//DTD SVG 1.1//EN" "http://www.w3.org/Graphics/SVG/1.1/DTD/svg11.dtd"><svg version="1.1" xmlns="http://www.w3.org/2000/svg" xmlns:xlink="http://www.w3.org/1999/xlink" width="20" height="20" viewBox="0 0 20 20" data-tags="location-food"><g fill="#444" transform="scale(0.01953125 0.01953125)"><path d="M921.6 563.2v358.4c0 56.554-45.846 102.4-102.4 102.4s-102.4-45.846-102.4-102.4v0-256h-102.4v-512c0-84.831 68.769-153.6 153.6-153.6v0h153.6v563.2zM204.8 512c-56.554 0-102.4-45.846-102.4-102.4v0-358.4c0-28.277 22.923-51.2 51.2-51.2s51.2 22.923 51.2 51.2v0 204.8h51.2v-204.8c0-28.277 22.923-51.2 51.2-51.2s51.2 22.923 51.2 51.2v0 204.8h51.2v-204.8c0-28.277 22.923-51.2 51.2-51.2s51.2 22.923 51.2 51.2v0 358.4c0 56.554-45.846 102.4-102.4 102.4v0 409.6c0 56.554-45.846 102.4-102.4 102.4s-102.4-45.846-102.4-102.4v0-409.6z" /></g></svg>