<?xml version="1.0" encoding="utf-8"?><!DOCTYPE svg PUBLIC "-//W3C//DTD SVG 1.1//EN" "http://www.w3.org/Graphics/SVG/1.1/DTD/svg11.dtd"><svg version="1.1" xmlns="http://www.w3.org/2000/svg" xmlns:xlink="http://www.w3.org/1999/xlink" width="20" height="20" viewBox="0 0 20 20" data-tags="location-gas-station"><g fill="#444" transform="scale(0.01953125 0.01953125)"><path d="M665.6 921.6h51.2v102.4h-716.8v-102.4h51.2v-819.2c0-56.32 46.080-102.4 102.4-102.4h409.6c56.554 0 102.4 45.846 102.4 102.4v0 819.2zM153.6 102.4v307.2h409.6v-307.2h-409.6zM665.6 512h51.2c56.554 0 102.4 45.846 102.4 102.4v0 153.6c0 28.277 22.923 51.2 51.2 51.2s51.2-22.923 51.2-51.2v0-256l-102.4-102.4v-102.4l-102.4-102.4 51.2-51.2 256 256v358.4c0 84.831-68.769 153.6-153.6 153.6s-153.6-68.769-153.6-153.6v0-153.6h-51.2v-102.4z" /></g></svg>