<?xml version="1.0" encoding="utf-8"?><!DOCTYPE svg PUBLIC "-//W3C//DTD SVG 1.1//EN" "http://www.w3.org/Graphics/SVG/1.1/DTD/svg11.dtd"><svg version="1.1" xmlns="http://www.w3.org/2000/svg" xmlns:xlink="http://www.w3.org/1999/xlink" width="20" height="20" viewBox="0 0 20 20" data-tags="location-park"><g fill="#444" transform="scale(0.01953125 0.01953125)"><path d="M272.896 653.824c-21.001 7.96-45.282 12.568-70.64 12.568-113.108 0-204.8-91.692-204.8-204.8 0-95.835 65.826-176.296 154.731-198.636l1.413-0.301v-6.656c-0-0.060-0-0.131-0-0.202 0-113.108 91.692-204.8 204.8-204.8 31.807 0 61.921 7.251 88.778 20.19l-1.226-0.533c33.060-43.309 84.712-70.97 142.825-70.97 90.776 0 165.788 67.496 177.585 155.040l0.102 0.922c53.149 10.48 94.016 52.73 102.307 105.775l0.093 0.721c89.483 23.236 154.488 103.288 154.488 198.524 0 113.108-91.692 204.8-204.8 204.8-31.953 0-62.198-7.318-89.148-20.369l1.221 0.533c-27.722 44.505-67.413 79.253-114.587 100.214l-1.637 0.65v175.104l102.4 51.2v51.2h-409.6v-51.2l102.4-51.2v-153.6l-136.704-114.176zM256 512l153.6 153.6v-153.6h-153.6z" /></g></svg>