<?xml version="1.0" encoding="utf-8"?><!DOCTYPE svg PUBLIC "-//W3C//DTD SVG 1.1//EN" "http://www.w3.org/Graphics/SVG/1.1/DTD/svg11.dtd"><svg version="1.1" xmlns="http://www.w3.org/2000/svg" xmlns:xlink="http://www.w3.org/1999/xlink" width="24" height="24" viewBox="0 0 24 24" data-tags="map"><g fill="#444" transform="scale(0.0234375 0.0234375)"><path d="M869.675 131.243c-15.915-6.613-34.304-2.944-46.507 9.259l-164.992 164.992-183.509-146.816c-16.896-13.483-41.515-12.245-56.832 3.157l-192 192c-8.021 7.979-12.501 18.816-12.501 30.165v426.667c0 17.237 10.368 32.853 26.325 39.424 5.291 2.261 10.837 3.243 16.341 3.243 11.093 0 22.016-4.352 30.165-12.501l164.992-164.992 183.509 146.816c16.896 13.483 41.429 12.16 56.832-3.157l192-192c8.021-7.979 12.501-18.816 12.501-30.165v-426.667c0-17.237-10.368-32.853-26.325-39.424zM298.667 707.669v-306.005l128-128v308.907c-2.987 1.835-128 125.099-128 125.099zM474.667 585.344c-1.621-1.237-3.584-1.92-5.333-2.901v-318.677c0 0 168.917 134.101 170.667 135.083v318.848l-165.333-132.352zM810.667 579.669l-128 128v-308.736c2.987-1.835 128-125.269 128-125.269v306.005z" /></g></svg>