<?xml version="1.0" encoding="utf-8"?><!DOCTYPE svg PUBLIC "-//W3C//DTD SVG 1.1//EN" "http://www.w3.org/Graphics/SVG/1.1/DTD/svg11.dtd"><svg version="1.1" xmlns="http://www.w3.org/2000/svg" xmlns:xlink="http://www.w3.org/1999/xlink" width="20" height="20" viewBox="0 0 20 20" data-tags="location-restroom"><g fill="#444" transform="scale(0.01953125 0.01953125)"><path d="M614.4 819.2h-153.6l102.4-230.4v-128c0-56.32 46.080-102.4 102.4-102.4h102.4c56.554 0 102.4 45.846 102.4 102.4v0 128l102.4 230.4h-153.6v204.8h-204.8v-204.8zM358.4 665.6h102.4v-204.8c0-56.554-45.846-102.4-102.4-102.4v0h-204.8c-56.554 0-102.4 45.846-102.4 102.4v0 204.8h102.4v358.4h204.8v-358.4zM256 307.2c-84.831 0-153.6-68.769-153.6-153.6s68.769-153.6 153.6-153.6v0c84.831 0 153.6 68.769 153.6 153.6s-68.769 153.6-153.6 153.6v0zM716.8 307.2c-84.831 0-153.6-68.769-153.6-153.6s68.769-153.6 153.6-153.6v0c84.831 0 153.6 68.769 153.6 153.6s-68.769 153.6-153.6 153.6v0z" /></g></svg>