<?xml version="1.0" encoding="utf-8"?><!DOCTYPE svg PUBLIC "-//W3C//DTD SVG 1.1//EN" "http://www.w3.org/Graphics/SVG/1.1/DTD/svg11.dtd"><svg version="1.1" xmlns="http://www.w3.org/2000/svg" xmlns:xlink="http://www.w3.org/1999/xlink" width="24" height="24" viewBox="0 0 24 24" data-tags="location"><g fill="#444" transform="scale(0.0234375 0.0234375)"><path d="M753.365 226.304c-133.291-131.115-349.397-131.115-482.688 0-133.291 131.157-133.291 343.765 0 474.88l241.323 237.44 241.365-237.44c133.291-131.115 133.291-343.723 0-474.88zM512 575.957c-28.501 0-55.253-11.093-75.435-31.232-41.6-41.6-41.6-109.269 0-150.869 20.139-20.139 46.933-31.232 75.435-31.232s55.296 11.093 75.435 31.232c41.6 41.6 41.6 109.312 0 150.869-20.139 20.139-46.933 31.232-75.435 31.232z" /></g></svg>