<?xml version="1.0" encoding="utf-8"?><!DOCTYPE svg PUBLIC "-//W3C//DTD SVG 1.1//EN" "http://www.w3.org/Graphics/SVG/1.1/DTD/svg11.dtd"><svg version="1.1" xmlns="http://www.w3.org/2000/svg" xmlns:xlink="http://www.w3.org/1999/xlink" width="32" height="32" viewBox="0 0 32 32" data-tags="deepin"><g fill="#444" transform="scale(0.03125 0.03125)"><path fill="rgb(0, 124, 255)" d="M687.104 29.696c-73.557-26.88-148.907-34.133-222.080-27.307-84.821 6.699-126.208 32.939-123.733 28.203-138.709 49.493-256 156.032-310.272 305.365-96.683 265.984 40.277 560.128 305.835 656.981 265.728 96.853 559.403-40.32 656.128-306.304 96.725-265.941-40.235-560.085-305.877-656.939zM354.347 944.853c-30.677-11.466-56.933-24.449-81.634-39.707l1.976 1.136c123.733 9.515 285.269-18.987 394.197-120.917 0 0 207.616-165.888 57.387-438.144 0 0 24.235 109.739-6.656 199.979 0 0-29.44 122.752-160.299 158.379-192.725 52.523-412.331-82.347-504.149-147.755-6.912-67.157-0.768-136.533 23.893-204.288 36.48-100.352 105.088-178.688 188.885-231.253-20.907 146.603-4.352 281.6 19.456 338.133 31.957 75.819 87.467 164.267 195.84 175.573 108.373 11.392 168.107-90.027 168.107-90.027 55.637-84.48 64.341-205.781 63.488-208.725-0.853-2.987-14.805-10.965-14.805-10.965-37.419 151.424-99.115 201.984-99.115 201.984-97.28 93.909-166.187 28.8-166.187 28.8-74.069-79.573-22.187-208.853-22.187-208.853 29.013-88.064 113.493-216.917 209.28-282.453 15.957 3.925 32 6.4 47.787 12.117 58.689 21.821 109.099 53.101 151.971 92.462l-0.333-0.302c-70.016 25.557-183.083 79.573-183.083 79.573-179.243 75.52-191.36 189.696-191.36 189.696-18.56 117.675 74.837 67.84 74.837 67.84 96.085-46.805 143.317-192.683 143.317-192.683-29.995-5.717-53.632 3.413-53.632 3.413-38.357 94.72-116.608 133.632-116.608 133.632-30.805 16.299-37.973-12.501-37.973-12.501-5.205-21.589 22.272-25.259 22.272-25.259 42.667-16.597 69.931-61.397 76.117-79.701 6.144-18.347 17.579-19.797 17.579-19.797 32.359-10.595 70.275-18.647 109.394-22.633l2.35-0.194c72.533-8.917 183.595 25.685 183.595 25.685 24.917 10.027 48.811 17.493 70.016 23.509 40.704 101.717 47.147 217.515 6.827 328.533-86.997 239.36-351.403 362.837-590.549 275.712z" /></g></svg>