<?xml version="1.0" encoding="utf-8"?><!DOCTYPE svg PUBLIC "-//W3C//DTD SVG 1.1//EN" "http://www.w3.org/Graphics/SVG/1.1/DTD/svg11.dtd"><svg version="1.1" xmlns="http://www.w3.org/2000/svg" xmlns:xlink="http://www.w3.org/1999/xlink" width="28" height="28" viewBox="0 0 28 28" data-code="61672" data-tags="sitemap"><g fill="#444" transform="scale(0.02734375 0.02734375)"><path d="M1024 713.143v182.857c0 30.286-24.571 54.857-54.857 54.857h-182.857c-30.286 0-54.857-24.571-54.857-54.857v-182.857c0-30.286 24.571-54.857 54.857-54.857h54.857v-109.714h-292.571v109.714h54.857c30.286 0 54.857 24.571 54.857 54.857v182.857c0 30.286-24.571 54.857-54.857 54.857h-182.857c-30.286 0-54.857-24.571-54.857-54.857v-182.857c0-30.286 24.571-54.857 54.857-54.857h54.857v-109.714h-292.571v109.714h54.857c30.286 0 54.857 24.571 54.857 54.857v182.857c0 30.286-24.571 54.857-54.857 54.857h-182.857c-30.286 0-54.857-24.571-54.857-54.857v-182.857c0-30.286 24.571-54.857 54.857-54.857h54.857v-109.714c0-40 33.143-73.143 73.143-73.143h292.571v-109.714h-54.857c-30.286 0-54.857-24.571-54.857-54.857v-182.857c0-30.286 24.571-54.857 54.857-54.857h182.857c30.286 0 54.857 24.571 54.857 54.857v182.857c0 30.286-24.571 54.857-54.857 54.857h-54.857v109.714h292.571c40 0 73.143 33.143 73.143 73.143v109.714h54.857c30.286 0 54.857 24.571 54.857 54.857z" /></g></svg>