<?xml version="1.0" encoding="utf-8"?><!DOCTYPE svg PUBLIC "-//W3C//DTD SVG 1.1//EN" "http://www.w3.org/Graphics/SVG/1.1/DTD/svg11.dtd"><svg version="1.1" xmlns="http://www.w3.org/2000/svg" xmlns:xlink="http://www.w3.org/1999/xlink" width="24" height="24" viewBox="0 0 24 24" data-tags="gps_not_fixed,location_searching"><g fill="#444" transform="scale(0.0234375 0.0234375)"><path d="M512 810q124 0 211-87t87-211-87-211-211-87-211 87-87 211 87 211 211 87zM894 470h88v84h-88q-14 126-114 226t-226 114v88h-84v-88q-126-14-226-114t-114-226h-88v-84h88q14-126 114-226t226-114v-88h84v88q126 14 226 114t114 226z" /></g></svg>