<?xml version="1.0" encoding="utf-8"?><!DOCTYPE svg PUBLIC "-//W3C//DTD SVG 1.1//EN" "http://www.w3.org/Graphics/SVG/1.1/DTD/svg11.dtd"><svg version="1.1" xmlns="http://www.w3.org/2000/svg" xmlns:xlink="http://www.w3.org/1999/xlink" width="24" height="24" viewBox="0 0 24 24" data-tags="gps_off,location_disabled"><g fill="#444" transform="scale(0.0234375 0.0234375)"><path d="M694 748l-418-418q-26 34-44 87t-18 95q0 124 87 211t211 87q42 0 95-18t87-44zM128 182l54-54 714 714-54 54-88-88q-90 74-200 86v88h-84v-88q-126-14-226-114t-114-226h-88v-84h88q4-46 30-105t56-95zM894 470h88v84h-88q-10 78-42 136l-64-64q22-54 22-114 0-124-87-211t-211-87q-60 0-114 22l-64-64q62-32 136-42v-88h84v88q126 14 226 114t114 226z" /></g></svg>