<?xml version="1.0" encoding="utf-8"?><!DOCTYPE svg PUBLIC "-//W3C//DTD SVG 1.1//EN" "http://www.w3.org/Graphics/SVG/1.1/DTD/svg11.dtd"><svg version="1.1" xmlns="http://www.w3.org/2000/svg" xmlns:xlink="http://www.w3.org/1999/xlink" width="32" height="32" viewBox="0 0 32 32" data-tags="pin,location,map marker,marker"><g fill="#444" transform="scale(0.03125 0.03125)"><path d="M656 480h-288c-35.328 0-64 28.672-64 64s28.672 64 64 64h288c35.328 0 64-28.672 64-64s-28.672-64-64-64zM434.656 256l-34.656 192h224l-34.688-192h-154.656zM512 928l48-288h-96l48 288zM416 224h192c26.496 0 48-21.504 48-48s-21.504-48-48-48h-192c-26.528 0-48 21.504-48 48s21.472 48 48 48z" /></g></svg>