<?xml version="1.0" encoding="utf-8"?><!DOCTYPE svg PUBLIC "-//W3C//DTD SVG 1.1//EN" "http://www.w3.org/Graphics/SVG/1.1/DTD/svg11.dtd"><svg version="1.1" xmlns="http://www.w3.org/2000/svg" xmlns:xlink="http://www.w3.org/1999/xlink" width="32" height="32" viewBox="0 0 32 32" data-tags="pin,location,map marker,marker"><g fill="#444" transform="scale(0.03125 0.03125)"><path d="M607.136 569.664l-249.408-144c-30.592-17.696-69.76-7.2-87.424 23.392-17.664 30.624-7.168 69.76 23.424 87.424l249.376 144c30.624 17.696 69.76 7.2 87.424-23.424 17.728-30.592 7.232-69.728-23.392-87.392zM401.44 413.952l193.984 112 65.984-183.616-133.952-77.312-126.016 148.928zM258.432 885.632l185.568-225.408-83.136-48-102.432 273.408zM741.568 240.8l-166.24-96c-22.976-13.248-52.32-5.408-65.568 17.568-13.28 22.976-5.376 52.32 17.568 65.568l166.272 96c22.976 13.248 52.32 5.408 65.568-17.568 13.248-22.976 5.376-52.32-17.6-65.568z" /></g></svg>