<?xml version="1.0" encoding="utf-8"?><!DOCTYPE svg PUBLIC "-//W3C//DTD SVG 1.1//EN" "http://www.w3.org/Graphics/SVG/1.1/DTD/svg11.dtd"><svg version="1.1" xmlns="http://www.w3.org/2000/svg" xmlns:xlink="http://www.w3.org/1999/xlink" width="20" height="20" viewBox="0 0 20 20" data-tags="pin"><g fill="#444" transform="scale(0.01953125 0.01953125)"><path d="M244.429 782.694l-107.776 166.4 11.469 54.426 54.272-11.622 107.725-166.298c-11.469-6.144-22.835-12.698-33.843-19.968-11.162-7.219-21.811-14.95-31.846-22.938zM700.723 724.582c0.717-1.485 1.178-3.123 1.843-4.71 2.714-5.99 5.12-11.981 7.066-18.278 0.307-1.126 0.461-2.253 0.819-3.277 1.997-6.963 3.686-13.824 5.018-20.89 0-0.358 0-0.614 0-1.075 9.984-59.853-7.424-126.618-47.258-186.931l56.832-87.757c65.485 8.346 122.112-8.141 149.35-50.278 47.258-72.858-10.24-194.15-128.256-271.002-118.118-76.902-252.058-80.128-299.213-7.373-27.341 42.189-19.354 100.71 15.002 157.338l-56.934 87.757c-71.117-11.93-139.059-0.819-189.594 32.768-0.307 0.102-0.666 0.205-0.87 0.41-5.888 3.994-11.622 8.397-16.998 13.005-0.87 0.717-1.894 1.382-2.611 2.099-5.018 4.301-9.523 9.114-13.875 13.926-1.024 1.229-2.458 2.304-3.43 3.584-5.427 6.195-10.445 12.749-14.848 19.712-70.861 109.21-10.394 274.483 134.81 369.101 145.306 94.618 320.512 82.637 391.219-26.573 4.454-6.912 8.55-14.131 11.93-21.555zM658.995 214.733c-45.414-29.542-67.584-76.134-49.408-104.243 18.125-28.006 69.683-26.726 114.995 2.816 45.517 29.542 67.482 76.237 49.408 104.243s-69.53 26.726-114.995-2.816z" /></g></svg>