<?xml version="1.0" encoding="utf-8"?><!DOCTYPE svg PUBLIC "-//W3C//DTD SVG 1.1//EN" "http://www.w3.org/Graphics/SVG/1.1/DTD/svg11.dtd"><svg version="1.1" xmlns="http://www.w3.org/2000/svg" xmlns:xlink="http://www.w3.org/1999/xlink" width="24" height="24" viewBox="0 0 24 24" data-tags="social-pinterest-circular"><g fill="#444" transform="scale(0.0234375 0.0234375)"><path d="M512 896c-211.755 0-384-172.245-384-384s172.245-384 384-384 384 172.245 384 384-172.245 384-384 384zM512 213.333c-164.651 0-298.667 134.016-298.667 298.667s134.016 298.667 298.667 298.667 298.667-134.016 298.667-298.667-134.016-298.667-298.667-298.667z" /><path d="M526.293 341.333c-105.301 0-158.379 75.52-158.379 138.411 0 38.187 14.421 72.021 45.355 84.651 5.077 2.091 9.643 0.085 11.136-5.504 0.981-3.925 3.413-13.739 4.48-17.835 1.493-5.504 0.896-7.467-3.157-12.331-8.917-10.496-14.677-24.149-14.677-43.477 0-55.979 41.899-106.112 109.141-106.112 59.563 0 92.203 36.395 92.203 84.907 0 63.915-28.245 117.845-70.229 117.845-23.168 0-40.533-19.157-34.987-42.709 6.656-28.075 19.584-58.368 19.584-78.635 0-18.176-9.771-33.237-29.867-33.237-23.723 0-42.752 24.491-42.752 57.344 0 20.907 7.083 35.072 7.083 35.072s-24.277 102.741-28.544 120.747c-8.448 35.84-1.237 79.787-0.64 84.224 0.341 2.645 3.712 3.285 5.248 1.28 2.219-2.859 30.421-37.76 40.021-72.533 2.731-9.813 15.616-60.885 15.616-60.885 7.68 14.677 30.165 27.563 54.101 27.563 71.253 0 119.595-64.896 119.595-151.893-0.043-65.621-55.723-126.891-140.331-126.891z" /></g></svg>