<?xml version="1.0" encoding="utf-8"?><!DOCTYPE svg PUBLIC "-//W3C//DTD SVG 1.1//EN" "http://www.w3.org/Graphics/SVG/1.1/DTD/svg11.dtd"><svg version="1.1" xmlns="http://www.w3.org/2000/svg" xmlns:xlink="http://www.w3.org/1999/xlink" width="18" height="18" viewBox="0 0 18 18" data-tags="map-marker"><g fill="#444" transform="scale(0.017578125 0.017578125)"><path d="M512 56.889c-219.945 0.277-398.222 177.5-398.222 396.11 0 314.306 285.556 472.583 370.277 509.305 7.333 3.195 15.166 4.805 22.972 4.805 1.668 0 3.305-0.361 4.972-0.5 1.668 0.139 3.305 0.5 4.972 0.5 7.806 0 15.639-1.611 22.972-4.805 84.722-36.72 370.277-194.999 370.277-509.305 0-218.61-178.251-395.833-398.222-396.11zM516.999 847.362c-1.5-0.779-3.362-1.749-4.999-2.583-1.639 0.834-3.5 1.806-4.999 2.583-73.001-36.862-279.445-161.751-279.445-394.363 0-155.527 127.556-282.055 284.444-282.332 156.889 0.277 284.444 126.805 284.444 282.332 0 232.612-206.444 357.5-279.445 394.363z" /><path d="M512 341.305c-62.834 0-113.778 50.944-113.778 113.806 0 62.834 50.944 113.778 113.778 113.778s113.778-50.944 113.778-113.778c0-62.86-50.944-113.806-113.778-113.806z" /></g></svg>