<?xml version="1.0" encoding="utf-8"?><!DOCTYPE svg PUBLIC "-//W3C//DTD SVG 1.1//EN" "http://www.w3.org/Graphics/SVG/1.1/DTD/svg11.dtd"><svg version="1.1" xmlns="http://www.w3.org/2000/svg" xmlns:xlink="http://www.w3.org/1999/xlink" width="32" height="32" viewBox="0 0 32 32" data-tags="target,goal,location"><g fill="#444" transform="scale(0.03125 0.03125)"><path d="M512 0c-282.784 0-512 229.248-512 512s229.216 512 512 512 512-229.248 512-512c0-282.752-229.216-512-512-512zM576 890.24v-122.24c0-17.696-14.304-32-32-32h-64c-17.696 0-32 14.304-32 32v122.24c-160.672-27.008-287.424-153.6-314.464-314.24h122.464c17.696 0 32-14.304 32-32v-64c0-17.696-14.304-32-32-32h-122.24c27.008-160.704 153.6-287.424 314.24-314.464v122.464c0 17.664 14.304 32 32 32h64c17.696 0 32-14.336 32-32v-122.464c160.64 27.040 287.232 153.76 314.24 314.464h-122.24c-17.696 0-32 14.304-32 32v64c0 17.696 14.304 32 32 32h122.464c-27.040 160.64-153.792 287.232-314.464 314.24z" /></g></svg>