<?xml version="1.0" encoding="utf-8"?><!DOCTYPE svg PUBLIC "-//W3C//DTD SVG 1.1//EN" "http://www.w3.org/Graphics/SVG/1.1/DTD/svg11.dtd"><svg version="1.1" xmlns="http://www.w3.org/2000/svg" xmlns:xlink="http://www.w3.org/1999/xlink" width="32" height="32" viewBox="0 0 32 32" data-tags="compass,location,direction"><g fill="#444" transform="scale(0.03125 0.03125)"><path d="M928 592c0 229.76-186.24 416-416 416s-416-186.24-416-416c0-202.56 144.8-371.104 336.48-408.224-10.4-15.328-16.48-33.824-16.48-53.792 0-53.024 42.976-96 96-96 52.992 0 96 42.976 96 96 0 19.936-6.080 38.432-16.512 53.792 191.712 37.12 336.512 205.664 336.512 408.224zM512 80c-26.528 0-48 21.504-48 48s21.472 48 48 48c26.496 0 48-21.504 48-48s-21.504-48-48-48zM544 241.6v78.4h-64v-78.4c-173.472 15.648-310.24 161.088-319.168 336.416h95.168v61.984h-92.672c21.216 162.144 152.544 287.552 316.672 302.368v-78.368h64v78.368c163.424-14.752 294.304-141.184 316.352-302.368h-92.352v-64h95.232c-7.936-176.256-145.152-318.688-319.232-334.4zM304.416 805.184l125.376-283.776 281.92-123.488-123.040 281.408-284.256 125.856zM554.24 555.328c-24.992-24.992-65.536-24.992-90.528 0s-24.992 65.504 0 90.496 65.536 24.992 90.528 0c24.992-24.992 24.992-65.472 0-90.496z" /></g></svg>