<?xml version="1.0" encoding="utf-8"?><!DOCTYPE svg PUBLIC "-//W3C//DTD SVG 1.1//EN" "http://www.w3.org/Graphics/SVG/1.1/DTD/svg11.dtd"><svg version="1.1" xmlns="http://www.w3.org/2000/svg" xmlns:xlink="http://www.w3.org/1999/xlink" width="20" height="20" viewBox="0 0 20 20" data-tags="pinterest-with-circle"><g fill="#444" transform="scale(0.01953125 0.01953125)"><path d="M512 20.48c-271.462 0-491.52 220.058-491.52 491.52s220.058 491.52 491.52 491.52 491.52-220.058 491.52-491.52-220.058-491.52-491.52-491.52zM545.638 628.48c-31.539-2.406-44.749-18.022-69.427-32.973-13.568 71.219-30.157 139.52-79.309 175.206-15.206-107.725 22.221-188.518 39.629-274.381-29.645-49.92 3.533-150.323 66.099-125.645 76.954 30.515-66.662 185.6 29.747 205.005 100.659 20.173 141.773-174.694 79.36-237.978-90.214-91.494-262.502-2.099-241.306 128.87 5.12 32 38.246 41.728 13.21 85.914-57.702-12.8-74.957-58.317-72.704-118.989 3.533-99.328 89.242-168.909 175.155-178.483 108.698-12.083 210.688 39.885 224.819 142.182 15.821 115.405-49.101 240.282-165.274 231.27z" /></g></svg>