<?xml version="1.0" encoding="utf-8"?><!DOCTYPE svg PUBLIC "-//W3C//DTD SVG 1.1//EN" "http://www.w3.org/Graphics/SVG/1.1/DTD/svg11.dtd"><svg version="1.1" xmlns="http://www.w3.org/2000/svg" xmlns:xlink="http://www.w3.org/1999/xlink" width="32" height="32" viewBox="0 0 32 32" data-tags="bowling-pins"><g fill="#444" transform="scale(0.03125 0.03125)"><path d="M672.798 448h62.008l1.194-64h-64l0.798 64zM658.419 480c-19.132 33.46-50.419 101.841-50.419 191.234 0 112.766 51.2 192.766 51.2 192.766h89.6c0 0 51.2-79.959 51.2-192.766 0-89.352-31.515-157.762-50.78-191.234h-90.802zM670.057 352h67.912c6.965-53.144 30.032-71.247 30.032-112 0-35.346-30.441-48.648-64-48.648s-64 13.056-64 48.648c0 40.801 23.121 58.481 30.057 112zM288.798 448h62.008l1.194-64h-64l0.798 64zM274.419 480c-19.132 33.46-50.419 101.841-50.419 191.234 0 112.766 51.2 192.766 51.2 192.766h89.6c0 0 51.2-79.959 51.2-192.766 0-89.352-31.515-157.762-50.78-191.234h-90.802zM286.057 352h67.912c6.965-53.144 30.032-71.247 30.032-112 0-35.346-30.441-48.648-64-48.648s-64 13.056-64 48.648c0 40.801 23.121 58.481 30.057 112zM448 671.234c0 128.686-64 224.766-64 224.766h-128c0 0-64-96-64-224.766s64-223.234 64-223.234v-64c0-64-32-96-32-144 0-35.593 32-80 96-80s96 44.654 96 80c0 48-32 80-32 144v64c0.009 0.013 64 94.558 64 223.234v0zM832 671.234c0 128.686-64 224.766-64 224.766h-128c0 0-64-96-64-224.766s64-223.234 64-223.234v-64c0-64-32-96-32-144 0-35.593 32-80 96-80s96 44.654 96 80c0 48-32 80-32 144v64c0.009 0.013 64 94.558 64 223.234v0z" /></g></svg>