<?xml version="1.0" encoding="utf-8"?><!DOCTYPE svg PUBLIC "-//W3C//DTD SVG 1.1//EN" "http://www.w3.org/Graphics/SVG/1.1/DTD/svg11.dtd"><svg version="1.1" xmlns="http://www.w3.org/2000/svg" xmlns:xlink="http://www.w3.org/1999/xlink" width="32" height="32" viewBox="0 0 32 32" data-tags="bowling-pins"><g fill="#444" transform="scale(0.03125 0.03125)"><path d="M640 448v-64h128v64h-128zM622.036 480c-18.931 38.163-46.036 107.436-46.036 191.234 0 128.766 64 224.766 64 224.766h128c0 0 64-96.080 64-224.766 0-83.76-27.114-153.058-46.046-191.234h-163.918zM637.215 352c-7.786-44.155-29.215-72.72-29.215-112 0-35.593 32-80 96-80s96 44.654 96 80c0 39.28-21.429 67.845-29.215 112h-133.569zM256 448v-64h128v64h-128zM238.036 480c-18.931 38.163-46.036 107.436-46.036 191.234 0 128.766 64 224.766 64 224.766h128c0 0 64-96.080 64-224.766 0-83.76-27.114-153.058-46.046-191.234h-163.918zM253.215 352c-7.786-44.155-29.215-72.72-29.215-112 0-35.593 32-80 96-80s96 44.654 96 80c0 39.28-21.429 67.845-29.215 112h-133.569z" /></g></svg>