<?xml version="1.0" encoding="utf-8"?><!DOCTYPE svg PUBLIC "-//W3C//DTD SVG 1.1//EN" "http://www.w3.org/Graphics/SVG/1.1/DTD/svg11.dtd"><svg version="1.1" xmlns="http://www.w3.org/2000/svg" xmlns:xlink="http://www.w3.org/1999/xlink" width="32" height="32" viewBox="0 0 32 32" data-tags="bowling-pin-ball"><g fill="#444" transform="scale(0.03125 0.03125)"><path d="M449.24 822.958v0 0c-20.915-28.95-33.24-64.514-33.24-102.958 0-50.629 21.378-96.266 55.6-128.374-10.693-50.318-29.342-88.973-42.38-111.626h-90.802v0c-19.132 33.46-50.419 101.841-50.419 191.234 0 112.766 51.2 192.766 51.2 192.766h89.6c0 0 9.573-14.95 20.441-41.042zM472.623 849.327c-13.197 29.519-24.623 46.673-24.623 46.673h-128c0 0-64-96-64-224.766s64-223.234 64-223.234v-64c0-64-32-96-32-144 0-35.593 32-80 96-80s96 44.654 96 80c0 48-32 80-32 144v64c0.006 0.009 32.567 48.117 51.237 122.402 26.934-16.737 58.72-26.402 92.763-26.402 97.202 0 176 78.798 176 176s-78.798 176-176 176c-46.070 0-88.006-17.701-119.377-46.673v0 0zM352.798 448h62.008l1.194-64h-64l0.798 64zM350.057 352h67.912c6.965-53.144 30.032-71.247 30.032-112 0-35.346-30.441-48.648-64-48.648s-64 13.056-64 48.648c0 40.801 23.121 58.481 30.057 112zM592 864c79.529 0 144-64.471 144-144s-64.471-144-144-144c-79.529 0-144 64.471-144 144s64.471 144 144 144v0zM592 640c8.837 0 16-7.163 16-16s-7.163-16-16-16c-8.837 0-16 7.163-16 16s7.163 16 16 16v0zM560 704c8.837 0 16-7.163 16-16s-7.163-16-16-16c-8.837 0-16 7.163-16 16s7.163 16 16 16v0zM624 704c8.837 0 16-7.163 16-16s-7.163-16-16-16c-8.837 0-16 7.163-16 16s7.163 16 16 16v0z" /></g></svg>