<?xml version="1.0" encoding="utf-8"?><!DOCTYPE svg PUBLIC "-//W3C//DTD SVG 1.1//EN" "http://www.w3.org/Graphics/SVG/1.1/DTD/svg11.dtd"><svg version="1.1" xmlns="http://www.w3.org/2000/svg" xmlns:xlink="http://www.w3.org/1999/xlink" width="32" height="32" viewBox="0 0 32 32" data-tags="bowling-pin-ball"><g fill="#444" transform="scale(0.03125 0.03125)"><path d="M457.957 879.055c-5.976 10.968-9.957 16.945-9.957 16.945h-128c0 0-64-96-64-224.766 0-83.798 27.105-153.071 46.036-191.234v0h163.918c7.467 15.058 16.208 34.959 24.055 58.679-63.278 35.669-106.010 103.505-106.010 181.321 0 63.805 28.729 120.9 73.957 159.055v0 0zM320 448v-64h128v64h-128zM317.215 352c-7.786-44.155-29.215-72.72-29.215-112 0-35.593 32-80 96-80s96 44.654 96 80c0 39.28-21.429 67.845-29.215 112h-133.569zM592 896v0c-97.202 0-176-78.798-176-176s78.798-176 176-176c97.202 0 176 78.798 176 176s-78.798 176-176 176zM592 640c8.837 0 16-7.163 16-16s-7.163-16-16-16c-8.837 0-16 7.163-16 16s7.163 16 16 16v0zM560 704c8.837 0 16-7.163 16-16s-7.163-16-16-16c-8.837 0-16 7.163-16 16s7.163 16 16 16v0zM624 704c8.837 0 16-7.163 16-16s-7.163-16-16-16c-8.837 0-16 7.163-16 16s7.163 16 16 16v0z" /></g></svg>