<?xml version="1.0" encoding="utf-8"?><!DOCTYPE svg PUBLIC "-//W3C//DTD SVG 1.1//EN" "http://www.w3.org/Graphics/SVG/1.1/DTD/svg11.dtd"><svg version="1.1" xmlns="http://www.w3.org/2000/svg" xmlns:xlink="http://www.w3.org/1999/xlink" width="32" height="32" viewBox="0 0 32 32" data-tags="compass,location,map"><g fill="#444" transform="scale(0.03125 0.03125)"><path d="M512 0c-282.792 0-512 229.208-512 512 0 282.75 229.208 512 512 512 282.75 0 512-229.25 512-512 0-282.792-229.25-512-512-512zM512 896c-211.75 0-384-172.25-384-384s172.25-384 384-384 384 172.25 384 384-172.25 384-384 384zM320 704l256-128 128-256-256 128-128 256z" /></g></svg>