<?xml version="1.0" encoding="utf-8"?><!DOCTYPE svg PUBLIC "-//W3C//DTD SVG 1.1//EN" "http://www.w3.org/Graphics/SVG/1.1/DTD/svg11.dtd"><svg version="1.1" xmlns="http://www.w3.org/2000/svg" xmlns:xlink="http://www.w3.org/1999/xlink" width="18" height="18" viewBox="0 0 18 18" data-tags="location"><g fill="#444" transform="scale(0.017578125 0.017578125)"><path d="M455.111 388.496v294.171c0 31.417 25.472 56.889 56.889 56.889s56.889-25.472 56.889-56.889v-294.171c66.281-23.435 113.778-86.64 113.778-160.94 0-94.251-76.416-170.667-170.667-170.667s-170.667 76.416-170.667 170.667c0 74.3 47.497 137.508 113.778 160.94zM910.222 398.222h-113.778c-31.417 0-56.889 25.472-56.889 56.889s25.472 56.889 56.889 56.889h28.444c15.723 0 28.444 12.722 28.444 28.444v284.444c0 15.723-12.722 28.444-28.444 28.444h-625.778c-15.723 0-28.444-12.722-28.444-28.444v-284.444c0-15.723 12.722-28.444 28.444-28.444h28.444c31.417 0 56.889-25.472 56.889-56.889s-25.472-56.889-56.889-56.889h-113.778c-31.417 0-56.889 25.472-56.889 56.889v455.111c0 31.417 25.472 56.889 56.889 56.889h796.444c31.417 0 56.889-25.472 56.889-56.889v-455.111c0-31.417-25.472-56.889-56.889-56.889z" /></g></svg>