<?xml version="1.0" encoding="utf-8"?><!DOCTYPE svg PUBLIC "-//W3C//DTD SVG 1.1//EN" "http://www.w3.org/Graphics/SVG/1.1/DTD/svg11.dtd"><svg version="1.1" xmlns="http://www.w3.org/2000/svg" xmlns:xlink="http://www.w3.org/1999/xlink" width="32" height="32" viewBox="0 0 32 32" data-tags="mapbox"><g fill="#444" transform="scale(0.03125 0.03125)"><path d="M512 0c-282.795 0-512 229.205-512 512s229.205 512 512 512 512-229.205 512-512-229.205-512-512-512zM755.029 637.568c-175.061 175.061-487.808 119.211-487.808 119.211s-56.448-312.149 119.211-487.808c97.323-97.323 258.603-93.312 360.533 8.064s105.429 263.168 8.064 360.533zM570.752 300.075l-50.091 103.083-103.083 50.091 103.083 50.091 50.091 103.083 50.091-103.083 103.083-50.091-103.083-50.091z" /></g></svg>