<?xml version="1.0" encoding="utf-8"?><!DOCTYPE svg PUBLIC "-//W3C//DTD SVG 1.1//EN" "http://www.w3.org/Graphics/SVG/1.1/DTD/svg11.dtd"><svg version="1.1" xmlns="http://www.w3.org/2000/svg" xmlns:xlink="http://www.w3.org/1999/xlink" width="32" height="32" viewBox="0 0 32 32" data-tags="spin-alt,refresh,reload,synchronize,loop"><g fill="#444" transform="scale(0.03125 0.03125)"><path d="M150.112 874.24c-96.864-96.736-150.112-225.248-150.112-362.24 0-282.24 229.632-512 512-512l64 64-64 64c-211.744 0-384 172.256-384 384 0 102.752 40 199.264 112.64 271.744l-78.624 10.24-11.904 80.256zM512 1024l-64-63.744 64-64.256c211.744 0 384-172.256 384-384 0-102.496-40-199.008-112.736-271.616l78.752-10.368 11.744-80.128c96.864 96.736 150.24 225.376 150.24 362.112 0 282.24-229.76 512-512 512v0z" /></g></svg>