<?xml version="1.0" encoding="utf-8"?><!DOCTYPE svg PUBLIC "-//W3C//DTD SVG 1.1//EN" "http://www.w3.org/Graphics/SVG/1.1/DTD/svg11.dtd"><svg version="1.1" xmlns="http://www.w3.org/2000/svg" xmlns:xlink="http://www.w3.org/1999/xlink" width="28" height="32" viewBox="0 0 28 32" data-tags="spin,refresh,reload,synchronize,loop"><g fill="#444" transform="scale(0.03125 0.03125)"><path d="M764.256 194.752l-90.24 90.624c60.48 60.512 93.984 140.992 93.984 226.624 0 176.512-143.488 320-320 320v-64l-128 128 128 128v-64c247.008 0 448-200.992 448-448 0-119.872-46.752-232.512-131.744-317.248zM576 128l-128-128v64c-247.008 0-448 200.992-448 448 0 119.872 46.752 232.512 131.744 317.248l90.24-90.624c-60.48-60.512-93.984-140.992-93.984-226.624 0-176.512 143.488-320 320-320v64l128-128z" /></g></svg>