<?xml version="1.0" encoding="utf-8"?><!DOCTYPE svg PUBLIC "-//W3C//DTD SVG 1.1//EN" "http://www.w3.org/Graphics/SVG/1.1/DTD/svg11.dtd"><svg version="1.1" xmlns="http://www.w3.org/2000/svg" xmlns:xlink="http://www.w3.org/1999/xlink" width="24" height="24" viewBox="0 0 24 24" data-tags="location_history"><g fill="#444" transform="scale(0.0234375 0.0234375)"><path d="M512 780q70 0 144-40t112-96q-2-56-90-94t-166-38-166 37-90 95q38 56 112 96t144 40zM512 170q-52 0-90 38t-38 90 38 90 90 38 90-38 38-90-38-90-90-38zM512 86q160 0 272 113t112 271q0 132-81 234t-205 136l-98 98-98-98q-124-34-205-136t-81-234q0-158 112-271t272-113z" /></g></svg>