<?xml version="1.0" encoding="utf-8"?><!DOCTYPE svg PUBLIC "-//W3C//DTD SVG 1.1//EN" "http://www.w3.org/Graphics/SVG/1.1/DTD/svg11.dtd"><svg version="1.1" xmlns="http://www.w3.org/2000/svg" xmlns:xlink="http://www.w3.org/1999/xlink" width="24" height="24" viewBox="0 0 24 24" data-tags="pin_drop"><g fill="#444" transform="scale(0.0234375 0.0234375)"><path d="M214 854h596v84h-596v-84zM426 342q0 36 25 60t61 24 61-24 25-60q0-34-26-60t-60-26-60 26-26 60zM768 342q0 86-64 203t-128 191l-64 74q-28-30-71-82t-114-176-71-210q0-106 75-181t181-75 181 75 75 181z" /></g></svg>