<?xml version="1.0" encoding="utf-8"?><!DOCTYPE svg PUBLIC "-//W3C//DTD SVG 1.1//EN" "http://www.w3.org/Graphics/SVG/1.1/DTD/svg11.dtd"><svg version="1.1" xmlns="http://www.w3.org/2000/svg" xmlns:xlink="http://www.w3.org/1999/xlink" width="32" height="32" viewBox="0 0 32 32" data-tags="openstreetmap"><g fill="#444" transform="scale(0.03125 0.03125)"><path fill="rgb(126, 188, 111)" d="M114.005 1022.677c-15.019-3.797-22.784-9.984-62.763-49.835-47.616-47.488-50.645-52.139-50.475-76.885 0-27.52-8.363-17.664 143.701-170.069 153.6-153.941 145.707-147.243 173.397-147.157 12.885 0 16.128 0.683 26.453 5.973l11.819 5.973 74.411-74.411-9.301-14.635c-18.133-28.245-35.2-69.504-42.923-103.637-5.023-21.461-7.902-46.104-7.902-71.418 0-77.175 26.76-148.101 71.507-204.003l-0.502 0.648c106.24-133.12 296.917-162.645 437.76-67.755 77.312 51.968 127.573 132.224 141.995 226.731 2.987 19.925 2.987 67.371 0 88.491-10.14 74.176-44.201 138.987-94.023 187.763l-0.057 0.055c-23.325 24.19-50.755 44.228-81.201 59.030l-1.701 0.746c-40.917 20.608-75.733 30.293-122.923 34.261-67.115 5.589-141.653-13.013-198.656-49.621l-14.635-9.301-74.411 74.411 5.973 11.947c5.333 10.283 5.973 13.483 5.973 26.325 0.128 27.776 6.656 19.925-146.176 172.757-117.803 117.589-135.936 134.997-144.981 139.136-11.563 5.333-29.44 7.296-40.363 4.48zM746.027 595.2c87.027-16.63 158.285-72.528 195.678-148.157l0.717-1.603c59.349-123.691 19.413-269.056-95.019-345.941-27.221-18.347-65.237-33.877-100.992-41.045-24.789-4.992-77.184-4.437-102.997 1.067-39.796 8.458-74.908 24.24-105.485 45.983l0.867-0.585c-18.944 13.44-50.219 44.715-63.445 63.445-31.767 43.98-50.81 98.978-50.81 158.424 0 68.643 25.392 131.356 67.295 179.259l-0.272-0.317c41.806 47.933 99.565 81.015 164.928 90.947l1.514 0.189c21.717 3.328 65.792 2.475 88.021-1.664zM586.539 909.909c-55.831-15.092-87.087-24.596-118.153-34.528l24.457 6.752c-1.067-1.195 51.499-187.563 53.632-189.824 0.981-1.109 180.992 49.152 188.331 52.736 2.645 1.109-0.128 12.288-22.4 89.685 21.002-88.428 11.715-56.556 2.519-24.645l-29.612 120.048c-1.067 3.712-2.944 6.656-4.139 6.656-1.195-0.128-43.861-12.245-94.635-26.88zM710.784 932.267c0-2.261 52.352-184.875 53.163-185.472 2.005-1.451 184.491-52.48 185.216-51.669 0.811 0.811-51.157 185.045-52.48 186.027-0.853 0.811-176.043 50.816-181.717 51.968-2.304 0.469-4.181 0-4.181-0.853zM407.637 850.731c36.096-36.352 68.224-69.419 71.424-73.728 7.296-9.301 17.28-31.232 20.139-43.307 1.109-5.035 2.261-15.019 2.475-22.272l0.469-13.099 7.765-2.176c4.395-1.195 8.235-1.877 8.619-1.451 0.981 1.067-51.499 184.363-53.163 186.027-0.853 0.683-28.885 9.088-62.464 18.603l-60.8 17.28zM761.301 720.171c-0.9-2.179-1.764-4.84-2.434-7.578l-0.083-0.401-1.877-6.656 6.656-1.195c57.131-9.685 118.443-36.523 166.741-73.088 6.827-5.333 10.752-7.296 11.307-5.717 2.304 7.040 11.605 40.533 11.307 40.917-1.451 1.451-191.147 54.699-191.616 53.717zM117.76 664.704c-2.133-1.664-50.304-164.949-53.931-183.040-0.683-3.584 6.229-1.877 92.757 22.869 90.496 25.771 93.525 26.837 94.805 31.573 1.195 4.181 0.469 5.504-5.333 9.515-3.584 2.517-32.811 30.891-64.981 63.104-19.335 19.597-38.659 38.61-58.261 57.334l-1.046 0.992c-0.683 0-2.389-1.067-4.011-2.347zM152.789 477.909c-50.688-14.635-92.331-26.581-92.459-26.709-0.683-0.512 53.803-189.141 54.827-190.293 0.939-0.939 188.672 51.669 190.677 53.419 0.384 0.384-11.477 43.392-26.368 95.531-24.576 86.187-27.435 94.891-30.848 94.72-2.133-0.128-45.184-12.16-95.829-26.667zM279.040 500.864c0.512-1.323 9.045-30.848 18.944-65.451l17.92-62.976 2.389 13.696c3.968 23.723 11.307 50.688 19.797 74.283 4.523 12.629 7.979 22.997 7.723 23.253-0.341 0.256-14.165 4.309-30.677 9.045-16.597 4.651-31.616 8.96-33.536 9.557-2.475 0.683-3.2 0.256-2.56-1.408zM209.28 260.779c-50.645-14.464-92.459-27.093-93.013-27.904-1.707-2.645-53.163-184.363-52.48-185.088 1.109-1.067 183.893 51.371 185.643 53.163 2.005 2.176 54.613 186.837 53.163 186.709zM300.928 187.691l-22.144-77.056-3.328-11.947 72.235-20.608c39.851-11.307 73.557-21.12 75.093-21.675 1.451-0.683-3.541 5.973-11.093 14.336-38.224 41.981-67.115 93.158-82.958 149.784l-0.626 2.621c-2.107 6.525-4.064 14.588-5.476 22.837l-0.156 1.099c0 12.501-4.907-1.067-21.547-59.392z" /></g></svg>