<?xml version="1.0" encoding="utf-8"?><!DOCTYPE svg PUBLIC "-//W3C//DTD SVG 1.1//EN" "http://www.w3.org/Graphics/SVG/1.1/DTD/svg11.dtd"><svg version="1.1" xmlns="http://www.w3.org/2000/svg" xmlns:xlink="http://www.w3.org/1999/xlink" width="16" height="28" viewBox="0 0 16 28" data-code="62070" data-tags="map-pin"><g fill="#444" transform="scale(0.02734375 0.02734375)"><path d="M292.571 621.714c25.143 0 49.714-2.857 73.143-8.571v374.286c0 20-16.571 36.571-36.571 36.571h-73.143c-20 0-36.571-16.571-36.571-36.571v-374.286c23.429 5.714 48 8.571 73.143 8.571zM292.571 0c161.714 0 292.571 130.857 292.571 292.571s-130.857 292.571-292.571 292.571-292.571-130.857-292.571-292.571 130.857-292.571 292.571-292.571zM292.571 128c10.286 0 18.286-8 18.286-18.286s-8-18.286-18.286-18.286c-110.857 0-201.143 90.286-201.143 201.143 0 10.286 8 18.286 18.286 18.286s18.286-8 18.286-18.286c0-90.857 73.714-164.571 164.571-164.571z" /></g></svg>