<?xml version="1.0" encoding="utf-8"?><!DOCTYPE svg PUBLIC "-//W3C//DTD SVG 1.1//EN" "http://www.w3.org/Graphics/SVG/1.1/DTD/svg11.dtd"><svg version="1.1" xmlns="http://www.w3.org/2000/svg" xmlns:xlink="http://www.w3.org/1999/xlink" width="28" height="28" viewBox="0 0 28 28" data-code="62071" data-tags="map-signs"><g fill="#444" transform="scale(0.02734375 0.02734375)"><path d="M997.143 169.714c7.429 7.429 7.429 18.857 0 26.286l-80.571 80.571c-10.286 10.286-24.571 16-38.857 16h-768c-20 0-36.571-16.571-36.571-36.571v-146.286c0-20 16.571-36.571 36.571-36.571h329.143v-36.571c0-20 16.571-36.571 36.571-36.571h73.143c20 0 36.571 16.571 36.571 36.571v36.571h292.571c14.286 0 28.571 5.714 38.857 16zM438.857 694.857h146.286v292.571c0 20-16.571 36.571-36.571 36.571h-73.143c-20 0-36.571-16.571-36.571-36.571v-292.571zM914.286 438.857c20 0 36.571 16.571 36.571 36.571v146.286c0 20-16.571 36.571-36.571 36.571h-768c-14.286 0-28.571-5.714-38.857-16l-80.571-80.571c-7.429-7.429-7.429-18.857 0-26.286l80.571-80.571c10.286-10.286 24.571-16 38.857-16h292.571v-109.714h146.286v109.714h329.143z" /></g></svg>