<?xml version="1.0" encoding="utf-8"?><!DOCTYPE svg PUBLIC "-//W3C//DTD SVG 1.1//EN" "http://www.w3.org/Graphics/SVG/1.1/DTD/svg11.dtd"><svg version="1.1" xmlns="http://www.w3.org/2000/svg" xmlns:xlink="http://www.w3.org/1999/xlink" width="32" height="28" viewBox="0 0 32 28" data-code="62072" data-tags="map-o"><g fill="#444" transform="scale(0.02734375 0.02734375)"><path d="M1154.286 6.286c9.714 6.857 16 18.286 16 30.286v804.571c0 14.857-9.143 28.571-22.857 33.714l-365.714 146.286c-9.143 4-18.286 4-27.429 0l-352-140.571-352 140.571c-4.571 2.286-9.143 2.857-13.714 2.857-7.429 0-14.286-2.286-20.571-6.286-9.714-6.857-16-18.286-16-30.286v-804.571c0-14.857 9.143-28.571 22.857-33.714l365.714-146.286c9.143-4 18.286-4 27.429 0l352 140.571 352-140.571c11.429-4.571 24-3.429 34.286 3.429zM420.571 83.429v725.714l329.143 131.429v-725.714zM73.143 207.429v725.714l310.857-124v-725.714zM1097.143 816.571v-725.714l-310.857 124v725.714z" /></g></svg>