<?xml version="1.0" encoding="utf-8"?><!DOCTYPE svg PUBLIC "-//W3C//DTD SVG 1.1//EN" "http://www.w3.org/Graphics/SVG/1.1/DTD/svg11.dtd"><svg version="1.1" xmlns="http://www.w3.org/2000/svg" xmlns:xlink="http://www.w3.org/1999/xlink" width="28" height="28" viewBox="0 0 28 28" data-code="62073" data-tags="map"><g fill="#444" transform="scale(0.02734375 0.02734375)"><path d="M292.571 0c9.714 0 18.286 8.571 18.286 18.286v841.143c0 6.857-4 13.143-9.714 16l-274.286 146.286c-2.857 1.714-5.714 2.286-8.571 2.286-9.714 0-18.286-8.571-18.286-18.286v-841.143c0-6.857 4-13.143 9.714-16l274.286-146.286c2.857-1.714 5.714-2.286 8.571-2.286zM1005.714 0c9.714 0 18.286 8.571 18.286 18.286v841.143c0 6.857-4 13.143-9.714 16l-274.286 146.286c-2.857 1.714-5.714 2.286-8.571 2.286-9.714 0-18.286-8.571-18.286-18.286v-841.143c0-6.857 4-13.143 9.714-16l274.286-146.286c2.857-1.714 5.714-2.286 8.571-2.286zM365.714 0c2.857 0 5.714 0.571 8 1.714l292.571 146.286c6.286 3.429 10.286 9.714 10.286 16.571v841.143c0 9.714-8.571 18.286-18.286 18.286-2.857 0-5.714-0.571-8-1.714l-292.571-146.286c-6.286-3.429-10.286-9.714-10.286-16.571v-841.143c0-9.714 8.571-18.286 18.286-18.286z" /></g></svg>