<?xml version="1.0" encoding="utf-8"?><!DOCTYPE svg PUBLIC "-//W3C//DTD SVG 1.1//EN" "http://www.w3.org/Graphics/SVG/1.1/DTD/svg11.dtd"><svg version="1.1" xmlns="http://www.w3.org/2000/svg" xmlns:xlink="http://www.w3.org/1999/xlink" width="24" height="24" viewBox="0 0 24 24" data-tags="not_listed_location"><g fill="#444" transform="scale(0.0234375 0.0234375)"><path d="M550 550q0-40 56-90t56-98q0-62-44-105t-106-43-106 43-44 105h76q0-30 22-52t52-22 52 22 22 52q0 24-17 44t-39 33-39 41-17 70h76zM550 672v-74h-76v74h76zM512 86q124 0 211 87t87 211q0 62-31 142t-75 150-87 131-73 97l-32 34q-12-14-32-37t-72-92-91-134-71-147-32-144q0-124 87-211t211-87z" /></g></svg>