<?xml version="1.0" encoding="utf-8"?><!DOCTYPE svg PUBLIC "-//W3C//DTD SVG 1.1//EN" "http://www.w3.org/Graphics/SVG/1.1/DTD/svg11.dtd"><svg version="1.1" xmlns="http://www.w3.org/2000/svg" xmlns:xlink="http://www.w3.org/1999/xlink" width="32" height="32" viewBox="0 0 32 32" data-tags="pingdom"><g fill="#444" transform="scale(0.03125 0.03125)"><path fill="rgb(255, 240, 0)" d="M510.293 759.637l339.584-144.896-300.757 308.949c-5.291-56.107-18.432-111.36-38.827-164.011zM1024 474.368c-217.643-10.069-435.541 17.664-643.712 81.92 43.691 45.781 80.256 97.792 108.16 154.496 172.459-96 411.563-218.581 535.552-235.989v-0.64zM487.509 486.101l8.832-2.56c65.621-19.584 130.091-43.307 192.981-70.656 63.659-24.96 123.563-58.88 177.451-100.992 57.387-45.611 100.48-106.624 124.373-175.872 5.12-11.392 9.003-23.424 11.392-35.712-86.357 117.76-428.416 130.048-428.416 130.048l80.64-73.984c-234.923 0.811-464.043 75.051-654.763 212.48 129.28 13.739 250.752 68.096 347.264 155.051 46.336-14.336 93.696-24.576 140.203-37.504v-0.256z" /></g></svg>