<?xml version="1.0" encoding="utf-8"?><!DOCTYPE svg PUBLIC "-//W3C//DTD SVG 1.1//EN" "http://www.w3.org/Graphics/SVG/1.1/DTD/svg11.dtd"><svg version="1.1" xmlns="http://www.w3.org/2000/svg" xmlns:xlink="http://www.w3.org/1999/xlink" width="24" height="24" viewBox="0 0 24 24" data-tags="location_city"><g fill="#444" transform="scale(0.0234375 0.0234375)"><path d="M810 640v-86h-84v86h84zM810 810v-84h-84v84h84zM554 298v-84h-84v84h84zM554 470v-86h-84v86h84zM554 640v-86h-84v86h84zM554 810v-84h-84v84h84zM298 470v-86h-84v86h84zM298 640v-86h-84v86h84zM298 810v-84h-84v84h84zM640 470h256v426h-768v-598h256v-84l128-128 128 128v256z" /></g></svg>