<?xml version="1.0" encoding="utf-8"?><!DOCTYPE svg PUBLIC "-//W3C//DTD SVG 1.1//EN" "http://www.w3.org/Graphics/SVG/1.1/DTD/svg11.dtd"><svg version="1.1" xmlns="http://www.w3.org/2000/svg" xmlns:xlink="http://www.w3.org/1999/xlink" width="24" height="24" viewBox="0 0 24 24" data-tags="fiber_pin"><g fill="#444" transform="scale(0.0234375 0.0234375)"><path d="M854 640v-256h-54v150l-106-150h-54v256h54v-150l108 150h52zM534 640v-256h-64v256h64zM384 490v-42q0-28-18-46t-46-18h-150v256h64v-86h86q28 0 46-19t18-45zM854 170q36 0 60 25t24 61v512q0 36-24 61t-60 25h-684q-36 0-60-25t-24-61v-512q0-36 24-61t60-25h684zM234 448h86v42h-86v-42z" /></g></svg>