<?xml version="1.0" encoding="utf-8"?><!DOCTYPE svg PUBLIC "-//W3C//DTD SVG 1.1//EN" "http://www.w3.org/Graphics/SVG/1.1/DTD/svg11.dtd"><svg version="1.1" xmlns="http://www.w3.org/2000/svg" xmlns:xlink="http://www.w3.org/1999/xlink" width="32" height="32" viewBox="0 0 32 32" data-tags="compass,location,map"><g fill="#444" transform="scale(0.03125 0.03125)"><path d="M292.608 735.584l314.88-129.024 129.024-317.92-317.888 126.048-126.016 320.896zM512.928 448.928c35.328 0 64 28.672 64 64s-28.672 64-64 64-64-28.672-64-64 28.672-64 64-64zM512 0c-282.784 0-512 229.216-512 512s229.216 512 512 512 512-229.216 512-512-229.216-512-512-512zM515.584 896.672c-212.704 0-385.12-172.416-385.12-385.088s172.416-385.12 385.12-385.12c212.672 0 385.088 172.448 385.088 385.152s-172.384 385.056-385.088 385.056z" /></g></svg>