<?xml version="1.0" encoding="utf-8"?><!DOCTYPE svg PUBLIC "-//W3C//DTD SVG 1.1//EN" "http://www.w3.org/Graphics/SVG/1.1/DTD/svg11.dtd"><svg version="1.1" xmlns="http://www.w3.org/2000/svg" xmlns:xlink="http://www.w3.org/1999/xlink" width="32" height="32" viewBox="0 0 32 32" data-tags="site map,tree,map"><g fill="#444" transform="scale(0.03125 0.03125)"><path d="M768 864h-96c-17.696 0-32-14.304-32-32v-64c0-17.696 14.304-32 32-32h64v-192h-224v192h32c17.664 0 32 14.304 32 32v64c0 17.696-14.336 32-32 32h-96c-17.696 0-32-14.304-32-32v-64c0-17.696 14.304-32 32-32h32v-192h-224v192h64c17.664 0 32 14.304 32 32v64c0 17.696-14.336 32-32 32h-96c-17.696 0-32-14.304-32-32v-64c0-17.696 14.304-32 32-32v-192-32h256v-224h-32c-17.696 0-32-14.336-32-32v-64c0-17.664 14.304-32 32-32h96c17.664 0 32 14.336 32 32v64c0 17.664-14.336 32-32 32h-32v224h256v32 192c17.664 0 32 14.304 32 32v64c0 17.696-14.336 32-32 32z" /></g></svg>